<svg width="48" height="48" viewBox="0 0 48 48" fill="none" xmlns="http://www.w3.org/2000/svg">
<path d="M30 6.5C26.9357 6.50235 23.9324 7.35713 21.3261 8.96874C18.7197 10.5803 16.6131 12.8852 15.2419 15.6256C13.6105 15.3877 11.9477 15.4885 10.357 15.9216C8.76637 16.3548 7.28203 17.1111 5.99659 18.1433C4.71115 19.1755 3.65218 20.4615 2.88575 21.9211C2.11931 23.3807 1.66185 24.9826 1.54188 26.6268C1.42192 28.271 1.64204 29.9223 2.1885 31.4777C2.73496 33.0331 3.59605 34.4592 4.71806 35.667C5.84006 36.8749 7.19891 37.8386 8.70985 38.4981C10.2208 39.1576 11.8514 39.4986 13.5 39.5H30C34.3761 39.5 38.5729 37.7616 41.6673 34.6673C44.7616 31.5729 46.5 27.3761 46.5 23C46.5 18.6239 44.7616 14.4271 41.6673 11.3327C38.5729 8.23839 34.3761 6.5 30 6.5ZM30 36.5H13.5C11.113 36.5 8.82386 35.5518 7.13603 33.864C5.4482 32.1761 4.49999 29.8869 4.49999 27.5C4.49999 25.1131 5.4482 22.8239 7.13603 21.136C8.82386 19.4482 11.113 18.5 13.5 18.5C13.7062 18.5 13.9125 18.5 14.1169 18.5206C13.7067 19.9784 13.4991 21.4856 13.5 23C13.5 23.3978 13.658 23.7794 13.9393 24.0607C14.2206 24.342 14.6022 24.5 15 24.5C15.3978 24.5 15.7793 24.342 16.0607 24.0607C16.342 23.7794 16.5 23.3978 16.5 23C16.5 20.33 17.2918 17.7199 18.7752 15.4998C20.2586 13.2797 22.367 11.5494 24.8338 10.5276C27.3006 9.50584 30.015 9.2385 32.6337 9.7594C35.2525 10.2803 37.6579 11.566 39.5459 13.4541C41.4339 15.3421 42.7197 17.7475 43.2406 20.3663C43.7615 22.985 43.4941 25.6994 42.4724 28.1662C41.4506 30.633 39.7203 32.7414 37.5002 34.2248C35.2801 35.7082 32.67 36.5 30 36.5Z" fill="#6F39FF"/>
</svg>
