<svg width="25" height="24" viewBox="0 0 25 24" fill="none" xmlns="http://www.w3.org/2000/svg">
<path d="M20.7727 4C21.325 4 21.7727 4.44772 21.7727 5V5.9116C21.7727 6.27476 21.5758 6.60938 21.2583 6.78575L13.2583 11.2302C12.9563 11.398 12.5891 11.398 12.2871 11.2302L4.28706 6.78575C3.9696 6.60938 3.77271 6.27476 3.77271 5.9116V5C3.77271 4.44772 4.22042 4 4.77271 4H20.7727ZM20.2871 9.82536C20.9536 9.45506 21.7727 9.93703 21.7727 10.6995V18C21.7727 18.5523 21.325 19 20.7727 19H4.77271C4.22042 19 3.77271 18.5523 3.77271 18V10.6995C3.77271 9.93703 4.59182 9.45506 5.25835 9.82536L12.2871 13.7302C12.5891 13.898 12.9563 13.898 13.2583 13.7302L20.2871 9.82536Z" fill="white"/>
</svg>