<svg width="34" height="32" viewBox="0 0 34 32" fill="none" xmlns="http://www.w3.org/2000/svg">
<path fill-rule="evenodd" clip-rule="evenodd" d="M17.2731 0.666748C13.356 0.668719 9.5674 2.01403 6.58466 4.46211C3.60193 6.9102 1.61959 10.3014 0.992094 14.0294C0.364601 17.7574 1.13287 21.579 3.15954 24.811C5.18621 28.0429 8.33912 30.4744 12.0545 31.6707C12.8742 31.8182 13.1829 31.3256 13.1829 30.9067C13.1829 30.4879 13.1665 29.2734 13.1611 27.9457C8.57089 28.9072 7.60095 26.0674 7.60095 26.0674C6.85232 24.2233 5.77035 23.7386 5.77035 23.7386C4.27308 22.7533 5.88238 22.7718 5.88238 22.7718C7.54085 22.8851 8.41243 24.413 8.41243 24.413C9.88238 26.8445 12.2731 26.1412 13.213 25.7302C13.3605 24.7002 13.7895 23.9994 14.2622 23.6016C10.5955 23.2012 6.74302 21.8366 6.74302 15.7406C6.7203 14.1597 7.32875 12.6308 8.44248 11.4703C8.27309 11.0699 7.7075 9.45239 8.60368 7.25532C8.60368 7.25532 9.98894 6.82855 13.1419 8.886C15.8464 8.17291 18.6998 8.17291 21.4042 8.886C24.5545 6.82855 25.937 7.25532 25.937 7.25532C26.8359 9.44712 26.2703 11.0646 26.101 11.4703C27.2182 12.631 27.8279 14.1625 27.8031 15.7459C27.8031 21.855 23.9425 23.2012 20.2703 23.5937C20.8605 24.089 21.3878 25.0558 21.3878 26.5416C21.3878 28.6702 21.3687 30.3825 21.3687 30.9067C21.3687 31.3309 21.6665 31.8261 22.5026 31.6707C26.2184 30.4743 29.3716 28.0424 31.3983 24.8099C33.4249 21.5774 34.1928 17.7551 33.5645 14.0268C32.9363 10.2985 30.953 6.90722 27.9693 4.45956C24.9856 2.01189 21.1961 0.66747 17.2785 0.666748H17.2731Z" fill="white"/>
</svg>
