<svg width="33" height="32" viewBox="0 0 33 32" fill="none" xmlns="http://www.w3.org/2000/svg">
<g clip-path="url(#clip0_19_192)">
<path d="M16.7727 2.88125C21.0477 2.88125 21.554 2.9 23.2352 2.975C24.7977 3.04375 25.6415 3.30625 26.204 3.525C26.9477 3.8125 27.4852 4.1625 28.0415 4.71875C28.604 5.28125 28.9477 5.8125 29.2352 6.55625C29.454 7.11875 29.7165 7.96875 29.7852 9.525C29.8602 11.2125 29.879 11.7188 29.879 15.9875C29.879 20.2625 29.8602 20.7688 29.7852 22.45C29.7165 24.0125 29.454 24.8563 29.2352 25.4188C28.9477 26.1625 28.5977 26.7 28.0415 27.2563C27.479 27.8188 26.9477 28.1625 26.204 28.45C25.6415 28.6688 24.7915 28.9313 23.2352 29C21.5477 29.075 21.0415 29.0938 16.7727 29.0938C12.4977 29.0938 11.9915 29.075 10.3102 29C8.74771 28.9313 7.90396 28.6688 7.34146 28.45C6.59771 28.1625 6.06021 27.8125 5.50396 27.2563C4.94146 26.6938 4.59771 26.1625 4.31021 25.4188C4.09146 24.8563 3.82896 24.0063 3.76021 22.45C3.68521 20.7625 3.66646 20.2563 3.66646 15.9875C3.66646 11.7125 3.68521 11.2063 3.76021 9.525C3.82896 7.9625 4.09146 7.11875 4.31021 6.55625C4.59771 5.8125 4.94771 5.275 5.50396 4.71875C6.06646 4.15625 6.59771 3.8125 7.34146 3.525C7.90396 3.30625 8.75396 3.04375 10.3102 2.975C11.9915 2.9 12.4977 2.88125 16.7727 2.88125ZM16.7727 0C12.429 0 11.8852 0.01875 10.179 0.09375C8.47896 0.16875 7.31021 0.44375 6.29771 0.8375C5.24146 1.25 4.34771 1.79375 3.46021 2.6875C2.56646 3.575 2.02271 4.46875 1.61021 5.51875C1.21646 6.5375 0.941455 7.7 0.866455 9.4C0.791455 11.1125 0.772705 11.6562 0.772705 16C0.772705 20.3438 0.791455 20.8875 0.866455 22.5938C0.941455 24.2938 1.21646 25.4625 1.61021 26.475C2.02271 27.5313 2.56646 28.425 3.46021 29.3125C4.34771 30.2 5.24146 30.75 6.29146 31.1562C7.31021 31.55 8.47271 31.825 10.1727 31.9C11.879 31.975 12.4227 31.9937 16.7665 31.9937C21.1102 31.9937 21.654 31.975 23.3602 31.9C25.0602 31.825 26.229 31.55 27.2415 31.1562C28.2915 30.75 29.1852 30.2 30.0727 29.3125C30.9602 28.425 31.5102 27.5313 31.9165 26.4813C32.3102 25.4625 32.5852 24.3 32.6602 22.6C32.7352 20.8938 32.754 20.35 32.754 16.0063C32.754 11.6625 32.7352 11.1188 32.6602 9.4125C32.5852 7.7125 32.3102 6.54375 31.9165 5.53125C31.5227 4.46875 30.979 3.575 30.0852 2.6875C29.1977 1.8 28.304 1.25 27.254 0.84375C26.2352 0.45 25.0727 0.175 23.3727 0.1C21.6602 0.01875 21.1165 0 16.7727 0Z" fill="white"/>
<path d="M16.7727 7.78125C12.2352 7.78125 8.55396 11.4625 8.55396 16C8.55396 20.5375 12.2352 24.2188 16.7727 24.2188C21.3102 24.2188 24.9915 20.5375 24.9915 16C24.9915 11.4625 21.3102 7.78125 16.7727 7.78125ZM16.7727 21.3312C13.829 21.3312 11.4415 18.9438 11.4415 16C11.4415 13.0563 13.829 10.6687 16.7727 10.6687C19.7165 10.6687 22.104 13.0563 22.104 16C22.104 18.9438 19.7165 21.3312 16.7727 21.3312Z" fill="white"/>
<path d="M27.2352 7.45611C27.2352 8.51861 26.3727 9.37486 25.3165 9.37486C24.254 9.37486 23.3977 8.51236 23.3977 7.45611C23.3977 6.3936 24.2602 5.53735 25.3165 5.53735C26.3727 5.53735 27.2352 6.39985 27.2352 7.45611Z" fill="white"/>
</g>
<defs>
<clipPath id="clip0_19_192">
<rect width="32" height="32" fill="white" transform="translate(0.772705)"/>
</clipPath>
</defs>
</svg>
