<svg width="34" height="32" viewBox="0 0 34 32" fill="none" xmlns="http://www.w3.org/2000/svg">
<path d="M31.3299 0H3.20903C1.86196 0 0.772705 1.03125 0.772705 2.30625V29.6875C0.772705 30.9625 1.86196 32 3.20903 32H31.3299C32.677 32 33.7727 30.9625 33.7727 29.6938V2.30625C33.7727 1.03125 32.677 0 31.3299 0ZM10.5631 27.2687H5.6647V11.9937H10.5631V27.2687ZM8.11392 9.9125C6.54126 9.9125 5.27153 8.68125 5.27153 7.1625C5.27153 5.64375 6.54126 4.4125 8.11392 4.4125C9.68013 4.4125 10.9499 5.64375 10.9499 7.1625C10.9499 8.675 9.68013 9.9125 8.11392 9.9125ZM28.8936 27.2687H24.0016V19.8438C24.0016 18.075 23.9694 15.7937 21.4557 15.7937C18.9098 15.7937 18.5231 17.725 18.5231 19.7188V27.2687H13.6376V11.9937H18.3297V14.0813H18.3942C19.0452 12.8813 20.6436 11.6125 23.0219 11.6125C27.9784 11.6125 28.8936 14.775 28.8936 18.8875V27.2687Z" fill="white"/>
</svg>
