<svg width="48" height="48" viewBox="0 0 48 48" fill="none" xmlns="http://www.w3.org/2000/svg">
<path d="M42 8H6C5.60218 8 5.22064 8.15804 4.93934 8.43934C4.65804 8.72064 4.5 9.10218 4.5 9.5V35C4.5 35.7956 4.81607 36.5587 5.37868 37.1213C5.94129 37.6839 6.70435 38 7.5 38H40.5C41.2957 38 42.0587 37.6839 42.6213 37.1213C43.1839 36.5587 43.5 35.7956 43.5 35V9.5C43.5 9.10218 43.342 8.72064 43.0607 8.43934C42.7794 8.15804 42.3978 8 42 8ZM7.5 20H15V26H7.5V20ZM18 20H40.5V26H18V20ZM40.5 11V17H7.5V11H40.5ZM7.5 29H15V35H7.5V29ZM40.5 35H18V29H40.5V35Z" fill="#6F39FF"/>
</svg>
