<svg width="34" height="26" viewBox="0 0 34 26" fill="none" xmlns="http://www.w3.org/2000/svg">
<path d="M11.1542 26C23.6039 26 30.4153 15.9956 30.4153 7.32248C30.4153 7.04123 30.4089 6.75373 30.396 6.47248C31.721 5.54328 32.8645 4.39234 33.7727 3.07373C32.5387 3.60613 31.2285 3.95384 29.8868 4.10498C31.2995 3.28388 32.3572 1.99396 32.8639 0.474356C31.535 1.23808 30.0816 1.77682 28.5662 2.06748C27.5451 1.01541 26.1951 0.318822 24.7248 0.0854013C23.2545 -0.148019 21.7458 0.0947339 20.4321 0.776129C19.1184 1.45752 18.0727 2.53961 17.4567 3.85508C16.8408 5.17056 16.6889 6.64615 17.0246 8.05373C14.3336 7.92279 11.7011 7.24494 9.29768 6.06413C6.89424 4.88332 4.77353 3.22592 3.07304 1.19936C2.20875 2.64432 1.94428 4.35419 2.33337 5.98145C2.72246 7.60872 3.73592 9.03126 5.16776 9.95998C4.09282 9.92689 3.04142 9.64624 2.10044 9.14123V9.22248C2.09948 10.7389 2.64009 12.2088 3.63038 13.3824C4.62067 14.5559 5.99952 15.3607 7.53255 15.66C6.53678 15.9242 5.49168 15.9627 4.47812 15.7725C4.91071 17.0766 5.75237 18.2172 6.88564 19.0351C8.01891 19.853 9.38725 20.3075 10.7997 20.335C8.40179 22.1615 5.43969 23.1522 2.39048 23.1475C1.84972 23.1467 1.3095 23.1145 0.772705 23.0512C3.87038 24.9783 7.47381 26.0018 11.1542 26Z" fill="white"/>
</svg>
